<svg xmlns="http://www.w3.org/2000/svg" xmlns:xlink="http://www.w3.org/1999/xlink" width="500" zoomAndPan="magnify" viewBox="0 0 375 374.999991" height="500" preserveAspectRatio="xMidYMid meet" version="1.0"><defs><g/><clipPath id="635afe433f"><path d="M 61.148438 61.148438 L 313.898438 61.148438 L 313.898438 313.898438 L 61.148438 313.898438 Z M 61.148438 61.148438 " clip-rule="nonzero"/></clipPath></defs><rect x="-37.5" width="450" fill="#ffffff" y="-37.499999" height="449.999989" fill-opacity="1"/><rect x="-37.5" width="450" fill="#ffffff" y="-37.499999" height="449.999989" fill-opacity="1"/><rect x="-37.5" width="450" fill="#ffffff" y="-37.499999" height="449.999989" fill-opacity="1"/><g clip-path="url(#635afe433f)"><path fill="#000000" d="M 77.203125 61.148438 C 68.410156 61.148438 61.148438 68.410156 61.148438 77.203125 L 61.148438 297.839844 C 61.148438 306.632812 68.410156 313.898438 77.203125 313.898438 L 297.839844 313.898438 C 306.632812 313.898438 313.898438 306.65625 313.898438 297.839844 L 313.898438 77.203125 C 313.898438 68.410156 306.65625 61.148438 297.839844 61.148438 Z M 77.203125 73.183594 L 297.839844 73.183594 C 300.074219 73.183594 301.863281 74.96875 301.863281 77.203125 L 301.863281 297.839844 C 301.863281 300.074219 300.074219 301.863281 297.839844 301.863281 L 77.203125 301.863281 C 74.96875 301.863281 73.183594 300.074219 73.183594 297.839844 L 73.183594 77.203125 C 73.183594 74.96875 74.96875 73.183594 77.203125 73.183594 Z M 175.488281 175.488281 L 175.488281 251.15625 C 175.488281 262.769531 171.089844 265.753906 163.449219 265.753906 C 155.457031 265.753906 149.910156 260.769531 146.242188 254.304688 L 127.34375 265.753906 C 132.820312 277.34375 146.242188 289.824219 164.859375 289.824219 C 185.453125 289.824219 199.558594 278.871094 199.558594 254.824219 L 199.558594 175.488281 Z M 250.425781 175.488281 C 229.929688 175.488281 216.789062 188.601562 216.789062 205.835938 C 216.789062 224.523438 227.8125 233.359375 244.386719 240.414062 L 250.121094 242.882812 C 260.582031 247.464844 265.753906 250.261719 265.753906 258.136719 C 265.753906 264.695312 260.769531 269.445312 251.25 269.445312 C 239.917969 269.445312 234.558594 261.757812 229.648438 253.71875 L 211.59375 265.753906 C 218.339844 279.082031 230.445312 289.824219 251.765625 289.824219 C 273.582031 289.824219 289.824219 278.496094 289.824219 257.832031 C 289.824219 238.648438 278.824219 230.117188 259.289062 221.75 L 253.554688 219.304688 C 243.703125 215.027344 239.425781 212.25 239.425781 205.363281 C 239.425781 199.792969 243.703125 195.515625 250.425781 195.515625 C 257.03125 195.515625 261.265625 198.3125 265.191406 205.363281 L 283.078125 193.890625 C 275.535156 180.5625 265.027344 175.488281 250.425781 175.488281 Z M 250.425781 175.488281 " fill-opacity="1" fill-rule="nonzero"/></g><g fill="#027070" fill-opacity="1"><g transform="translate(81.500162, 229.892279)"><g><path d="M 94.203125 -75.765625 L 94.203125 -121.453125 L 118.125 -121.453125 L 118.125 0 L 94.203125 0 L 94.203125 -55.328125 L 39.796875 -55.328125 L 39.796875 0 L 15.78125 0 L 15.78125 -121.453125 L 39.796875 -121.453125 L 39.796875 -75.765625 Z M 94.203125 -75.765625 "/></g></g></g></svg>